<mxfile host="Electron" agent="Mozilla/5.0 (Windows NT 10.0; Win64; x64) AppleWebKit/537.36 (KHTML, like Gecko) draw.io/24.7.17 Chrome/128.0.6613.36 Electron/32.0.1 Safari/537.36" version="24.7.17">
  <diagram name="Page-1" id="tmJBSQlpaHBtP0AGC0ac">
    <mxGraphModel dx="1662" dy="882" grid="1" gridSize="10" guides="1" tooltips="1" connect="1" arrows="1" fold="1" page="1" pageScale="1" pageWidth="850" pageHeight="1100" math="0" shadow="0">
      <root>
        <mxCell id="0" />
        <mxCell id="1" parent="0" />
        <mxCell id="c9geEwpL1cyc_QCy2Erx-3" value="" style="rounded=0;whiteSpace=wrap;html=1;fillColor=none;strokeColor=none;" parent="1" vertex="1">
          <mxGeometry x="-10" y="330" width="840" height="350" as="geometry" />
        </mxCell>
        <mxCell id="Bf72gJYAT4ZZzq99we0L-12" value="" style="rounded=0;whiteSpace=wrap;html=1;dashed=1;dashPattern=8 8;fillColor=#EDF9FC;strokeColor=#6c8ebf;" parent="1" vertex="1">
          <mxGeometry x="90" y="335" width="640" height="340" as="geometry" />
        </mxCell>
        <mxCell id="c9geEwpL1cyc_QCy2Erx-1" value="" style="rounded=0;whiteSpace=wrap;html=1;fillColor=#FFFCEB;strokeColor=#000000;" parent="1" vertex="1">
          <mxGeometry x="110" y="410" width="130" height="170" as="geometry" />
        </mxCell>
        <mxCell id="Bf72gJYAT4ZZzq99we0L-3" style="edgeStyle=orthogonalEdgeStyle;rounded=0;orthogonalLoop=1;jettySize=auto;html=1;exitX=1;exitY=0.25;exitDx=0;exitDy=0;" parent="1" source="Bf72gJYAT4ZZzq99we0L-1" edge="1">
          <mxGeometry relative="1" as="geometry">
            <mxPoint x="600" y="442.66666666666663" as="targetPoint" />
          </mxGeometry>
        </mxCell>
        <mxCell id="Bf72gJYAT4ZZzq99we0L-1" value="&lt;b&gt;&lt;font style=&quot;font-size: 24px;&quot;&gt;UART&lt;/font&gt;&lt;/b&gt;&lt;div&gt;&lt;b&gt;&lt;font style=&quot;font-size: 24px;&quot;&gt;Controller&lt;/font&gt;&lt;/b&gt;&lt;/div&gt;" style="rounded=0;whiteSpace=wrap;html=1;fillColor=#DAF0EA;" parent="1" vertex="1">
          <mxGeometry x="320" y="380" width="180" height="250" as="geometry" />
        </mxCell>
        <mxCell id="Bf72gJYAT4ZZzq99we0L-4" value="" style="endArrow=classic;html=1;rounded=0;" parent="1" edge="1">
          <mxGeometry width="50" height="50" relative="1" as="geometry">
            <mxPoint x="600" y="560" as="sourcePoint" />
            <mxPoint x="500" y="560" as="targetPoint" />
          </mxGeometry>
        </mxCell>
        <mxCell id="Bf72gJYAT4ZZzq99we0L-5" value="&lt;font style=&quot;font-size: 18px;&quot;&gt;&lt;b&gt;TX&lt;/b&gt;&lt;/font&gt;" style="text;html=1;align=center;verticalAlign=middle;resizable=0;points=[];autosize=1;strokeColor=none;fillColor=none;" parent="1" vertex="1">
          <mxGeometry x="520" y="405" width="50" height="40" as="geometry" />
        </mxCell>
        <mxCell id="Bf72gJYAT4ZZzq99we0L-6" value="&lt;font style=&quot;font-size: 18px;&quot;&gt;&lt;b&gt;RX&lt;/b&gt;&lt;/font&gt;" style="text;html=1;align=center;verticalAlign=middle;resizable=0;points=[];autosize=1;strokeColor=none;fillColor=none;" parent="1" vertex="1">
          <mxGeometry x="520" y="524" width="50" height="40" as="geometry" />
        </mxCell>
        <mxCell id="Bf72gJYAT4ZZzq99we0L-7" value="&lt;font style=&quot;font-size: 24px;&quot;&gt;&lt;b&gt;RS232&lt;/b&gt;&lt;/font&gt;&lt;div&gt;&lt;font size=&quot;3&quot;&gt;&lt;b&gt;PHY&lt;/b&gt;&lt;/font&gt;&lt;/div&gt;" style="rounded=0;whiteSpace=wrap;html=1;fillColor=#FFFCEB;strokeColor=#171100;" parent="1" vertex="1">
          <mxGeometry x="600" y="400" width="100" height="200" as="geometry" />
        </mxCell>
        <mxCell id="Bf72gJYAT4ZZzq99we0L-8" value="" style="shape=flexArrow;endArrow=classic;startArrow=classic;html=1;rounded=0;fillColor=#999999;" parent="1" edge="1">
          <mxGeometry width="100" height="100" relative="1" as="geometry">
            <mxPoint x="700" y="480" as="sourcePoint" />
            <mxPoint x="780" y="480" as="targetPoint" />
          </mxGeometry>
        </mxCell>
        <mxCell id="Bf72gJYAT4ZZzq99we0L-9" value="" style="shape=flexArrow;endArrow=classic;startArrow=classic;html=1;rounded=0;fillColor=#999999;" parent="1" edge="1">
          <mxGeometry width="100" height="100" relative="1" as="geometry">
            <mxPoint x="246" y="494.5" as="sourcePoint" />
            <mxPoint x="316" y="494.5" as="targetPoint" />
          </mxGeometry>
        </mxCell>
        <mxCell id="Bf72gJYAT4ZZzq99we0L-10" value="&lt;b&gt;[Reg]&lt;/b&gt;" style="text;html=1;align=center;verticalAlign=middle;resizable=0;points=[];autosize=1;strokeColor=none;fillColor=none;rotation=0;" parent="1" vertex="1">
          <mxGeometry x="313" y="460" width="50" height="30" as="geometry" />
        </mxCell>
        <mxCell id="Bf72gJYAT4ZZzq99we0L-11" value="&lt;font style=&quot;font-size: 24px;&quot;&gt;&lt;b&gt;Wishbone&amp;nbsp;&lt;/b&gt;&lt;/font&gt;&lt;div&gt;&lt;font style=&quot;font-size: 24px;&quot;&gt;&lt;b&gt;Bus&lt;/b&gt;&lt;/font&gt;&lt;/div&gt;" style="text;html=1;align=center;verticalAlign=middle;resizable=0;points=[];autosize=1;strokeColor=none;fillColor=none;" parent="1" vertex="1">
          <mxGeometry x="110" y="465" width="140" height="70" as="geometry" />
        </mxCell>
        <mxCell id="Bf72gJYAT4ZZzq99we0L-13" value="UART Serial Pin" style="text;html=1;align=center;verticalAlign=middle;resizable=0;points=[];autosize=1;strokeColor=none;fillColor=none;rotation=90;" parent="1" vertex="1">
          <mxGeometry x="690" y="380" width="110" height="30" as="geometry" />
        </mxCell>
        <mxCell id="Bf72gJYAT4ZZzq99we0L-14" value="UART Serial Pin" style="text;html=1;align=center;verticalAlign=middle;resizable=0;points=[];autosize=1;strokeColor=none;fillColor=none;rotation=90;" parent="1" vertex="1">
          <mxGeometry x="690" y="580" width="110" height="30" as="geometry" />
        </mxCell>
        <mxCell id="Bf72gJYAT4ZZzq99we0L-15" value="&lt;font style=&quot;font-size: 24px;&quot;&gt;&lt;b&gt;PC&lt;/b&gt;&lt;/font&gt;" style="text;html=1;align=center;verticalAlign=middle;resizable=0;points=[];autosize=1;strokeColor=none;fillColor=none;" parent="1" vertex="1">
          <mxGeometry x="780" y="460" width="60" height="40" as="geometry" />
        </mxCell>
      </root>
    </mxGraphModel>
  </diagram>
</mxfile>
